<?xml version="1.0" encoding="UTF-8" standalone="no"?>
<!-- Created with Inkscape (http://www.inkscape.org/) -->

<svg
   width="100mm"
   height="100mm"
   viewBox="0 0 100 100"
   version="1.1"
   id="svg1"
   inkscape:version="1.3.2 (091e20e, 2023-11-25, custom)"
   sodipodi:docname="Name_plate_6mm.svg"
   xmlns:inkscape="http://www.inkscape.org/namespaces/inkscape"
   xmlns:sodipodi="http://sodipodi.sourceforge.net/DTD/sodipodi-0.dtd"
   xmlns="http://www.w3.org/2000/svg"
   xmlns:svg="http://www.w3.org/2000/svg">
  <sodipodi:namedview
     id="namedview1"
     pagecolor="#ffffff"
     bordercolor="#000000"
     borderopacity="0.25"
     inkscape:showpageshadow="2"
     inkscape:pageopacity="0.0"
     inkscape:pagecheckerboard="0"
     inkscape:deskcolor="#d1d1d1"
     inkscape:document-units="mm"
     inkscape:zoom="0.67615741"
     inkscape:cx="105.00514"
     inkscape:cy="191.52345"
     inkscape:window-width="840"
     inkscape:window-height="963"
     inkscape:window-x="1272"
     inkscape:window-y="12"
     inkscape:window-maximized="0"
     inkscape:current-layer="layer1" />
  <defs
     id="defs1" />
  <g
     inkscape:label="Layer 1"
     inkscape:groupmode="layer"
     id="layer1">
    <path
       id="rect3"
       style="fill:none;fill-rule:evenodd;stroke:#ff0000;stroke-width:0.182376;stroke-miterlimit:1.1"
       d="m 37.610841,75.741192 h 24.169624 v 6.017624 H 37.610841 Z m -2.5891,-5.110756 h 29.347824 c 4.986,0 9,3.621326 9,8.119565 0,4.498239 -4.014,8.119565 -9,8.119565 H 35.021741 c -4.986,0 -9,-3.621326 -9,-8.119565 0,-4.498239 4.014,-8.119565 9,-8.119565 z M 50.478485,12.391449 A 24,24 0 0 0 26.4784,36.391535 24,24 0 0 0 38.566551,57.161843 v 5.969662 H 62.413674 V 57.149441 A 24,24 0 0 0 74.478054,36.391535 24,24 0 0 0 50.478485,12.391449 Z" />
  </g>
</svg>
